# xmcd
#
# Track frame offsets: 
#        150
#        12088
#        27309
#        38838
#        55400
#        69251
#        86253
#        97875
#        113096
#        125646
#        140813
#        156108
#        171980
#        191116
#        210226
#        226375
#        243169
#        260431
#        272744
#        289349
#        301652
#        319310
#
# Disc length: 4532 seconds
#
# Revision: 1
# Processed by: cddbd v1.5.1PL0 Copyright (c) Steve Scherf et al.
# Submitted via: ExactAudioCopy v0.95b2
#
DISCID=3111b216
DTITLE=Ella Fitzgerald - Gold
DYEAR=2003
DGENRE=Jazz
TTITLE0=I Only Have Eyes for You
TTITLE1=Anything Goes
TTITLE2=Too Marvelous for Words
TTITLE3=September Song
TTITLE4=They All Laughed
TTITLE5=Cheek to Cheek
TTITLE6=If I Were a Bell
TTITLE7=Ridin' High
TTITLE8=In a Sentimental Mood
TTITLE9=All of Me
TTITLE10=Come Rain or Come Shine
TTITLE11='S Wonderful
TTITLE12=Let's Call the Whole Thing Off (f. Louis Armstrong)
TTITLE13=Cry Me a River
TTITLE14=You're the Top
TTITLE15=Blue Skies
TTITLE16=I Didn't Know What Time It Was
TTITLE17=It's De-Lovely
TTITLE18=I Could Write a Book
TTITLE19=I've Got You Under My Skin
TTITLE20=Can't Help Lovin' Dat Man
TTITLE21=Someone to Watch Over Me
EXTD=YEAR: 2003
EXTT0=
EXTT1=
EXTT2=
EXTT3=
EXTT4=
EXTT5=
EXTT6=
EXTT7=
EXTT8=
EXTT9=
EXTT10=
EXTT11=
EXTT12=
EXTT13=
EXTT14=
EXTT15=
EXTT16=
EXTT17=
EXTT18=
EXTT19=
EXTT20=
EXTT21=
PLAYORDER=
